<svg xmlns="http://www.w3.org/2000/svg" width="1920" height="1080" viewBox="0 0 1920 1080">
  <defs>
    <linearGradient id="gradient1" x1="1035.5" y1="1592" x2="1035.5" y2="-409" gradientUnits="userSpaceOnUse">
      <stop stop-color="#E1BD7F"/>
      <stop offset="1" stop-color="#55A053"/>
    </linearGradient>
    
    <linearGradient id="gradient2" x1="1249.54" y1="1527.04" x2="1249.54" y2="-432.04" gradientUnits="userSpaceOnUse">
      <stop stop-color="#6E282A"/>
      <stop offset="1" stop-color="#539043"/>
    </linearGradient>
    
    <linearGradient id="gradient3" x1="979.539" y1="-278" x2="979.539" y2="1659" gradientUnits="userSpaceOnUse">
      <stop stop-color="#5F192A"/>
      <stop offset="1" stop-color="#A77A38"/>
    </linearGradient>

    <!-- Фильтр для мягкости -->
    <filter id="blur">
      <feGaussianBlur stdDeviation="2"/>
    </filter>
  </defs>

  <!-- Затемненный фон -->
  <rect width="1920" height="1080" fill="#0a0a12"/>

  <!-- Фрейм 1 (левый верхний угол) -->
  <g transform="translate(-100, -50) scale(1.1)" opacity="0.7">
    <path d="M2.76131 311.963C552.592 -898.616 1572.72 -214.711 1582.01 -232.182C1582 -232.237 1582.01 -232.259 1582.04 -232.245C1582.03 -232.223 1582.02 -232.202 1582.01 -232.182C1583.86 -223.718 2076.16 573.938 2070.96 572.423C2048.37 567.851 1553.72 1599.57 1526.5 1591.96C1505.07 1587.38 854.717 1494.44 829.631 1479.5C809.959 1467.78 792.769 1457 762.546 1438.29C743.096 1426.25 711.574 1426.59 659.273 1427.15L657.329 1427.17C563.093 1428.18 494.451 1426.17 483.256 1418.46C478.052 1414.88 474.498 1410.93 470.54 1406.24C453.764 1386.38 436.886 1370.18 420.23 1348.26C402.83 1325.36 383.811 1311.05 363.536 1305.1C339.196 1297.97 317.435 1290.7 297.041 1286.29C275.633 1281.67 250.453 1274.79 231.707 1263.4C213.179 1252.14 187.319 1237.92 163.459 1199.27C149.615 1176.84 144.681 1150.43 148.522 1130.62C153.154 1106.73 182.837 1084.09 157.144 975.358C147.325 933.805 139.22 892.191 125.9 858.538C112.629 825.008 106.967 802.962 93.4928 785.347C73.2821 758.926 63.171 741.857 50.1402 725.884C33.937 706.022 22.8224 687.948 21.2721 617.163C20.1271 564.885 23.7273 470.11 19.5377 420.851C14.2986 359.252 -7.63505 334.853 2.76131 311.963Z" fill="url(#gradient1)"/>
  </g>

  <!-- Фрейм 2 (центр) -->
  <g transform="translate(-50, -20) scale(1.0)" opacity="0.7">
    <path d="M2.61214 365.271C522.733 -822.327 1487.74 -151.39 1496.51 -168.54C1496.5 -168.595 1496.51 -168.615 1496.54 -168.602C1496.53 -168.58 1496.52 -168.56 1496.51 -168.54C1498.25 -160.261 1963.96 622.272 1959.04 620.785C1937.67 616.3 1469.75 1628.44 1444 1620.96C1423.73 1616.47 808.531 1525.29 784.797 1510.63C766.187 1499.14 749.925 1488.56 721.336 1470.21C702.936 1458.4 673.118 1458.73 623.644 1459.28L621.805 1459.3C532.662 1460.29 467.729 1458.32 457.139 1450.76C452.216 1447.24 448.854 1443.37 445.11 1438.77C429.241 1419.29 413.275 1403.39 397.519 1381.89C381.06 1359.43 363.069 1345.39 343.889 1339.55C320.865 1332.55 300.28 1325.42 280.987 1321.1C260.736 1316.57 236.917 1309.81 219.184 1298.64C201.658 1287.59 177.195 1273.64 154.625 1235.73C141.529 1213.73 136.861 1187.82 140.495 1168.38C144.877 1144.95 172.956 1122.74 148.651 1016.07C139.363 975.304 131.696 934.48 119.096 901.467C106.541 868.574 101.186 846.945 88.4403 829.665C69.3216 803.745 59.7563 787.001 47.4295 771.331C32.102 751.846 21.5885 734.115 20.1219 664.676C19.0388 613.391 22.4445 520.416 18.4813 472.092C13.5253 411.663 -7.22239 387.727 2.61214 365.271Z" fill="url(#gradient2)"/>
  </g>

  <!-- Фрейм 3 (правый нижний угол) -->
  <g transform="translate(0, 10) scale(0.9)" opacity="0.7">
    <path d="M2.61214 419.903C522.733 -751.965 1487.74 -89.915 1496.51 -106.838C1496.5 -106.892 1496.51 -106.913 1496.54 -106.899C1496.53 -106.878 1496.52 -106.857 1496.51 -106.838C1498.25 -98.6684 1963.96 673.499 1959.04 672.032C1937.67 667.609 1469.75 1666.34 1444 1658.96C1423.73 1654.53 808.529 1564.55 784.797 1550.09C766.187 1538.75 749.925 1528.32 721.336 1510.21C702.937 1498.55 673.119 1498.88 623.646 1499.42L621.805 1499.44C532.662 1500.42 467.729 1498.47 457.139 1491.01C452.216 1487.54 448.854 1483.72 445.11 1479.18C429.241 1459.96 413.275 1444.27 397.519 1423.05C381.06 1400.89 363.069 1387.04 343.889 1381.28C320.865 1374.37 300.28 1367.33 280.987 1363.07C260.736 1358.6 236.917 1351.93 219.184 1340.91C201.658 1330.01 177.195 1316.24 154.625 1278.83C141.529 1257.12 136.861 1231.55 140.495 1212.38C144.877 1189.25 172.956 1167.34 148.651 1062.08C139.363 1021.86 131.696 981.573 119.096 948.996C106.541 916.539 101.187 895.197 88.4403 878.146C69.3217 852.57 59.7562 836.047 47.4295 820.585C32.1019 801.359 21.5885 783.862 20.1219 715.342C19.0388 664.736 22.4445 572.993 18.4813 525.309C13.5253 465.68 -7.22239 442.061 2.61214 419.903Z" fill="url(#gradient3)"/>
  </g>

  <!-- Наложение для приглушения -->
  <rect width="1920" height="1080" fill="rgba(0,0,0,0.3)"/>
</svg>