<svg width="1130" height="1380" viewBox="0 0 1130 1380" fill="none" xmlns="http://www.w3.org/2000/svg">
<path d="M2.76131 311.963C552.592 -898.616 1572.72 -214.711 1582.01 -232.182C1582 -232.237 1582.01 -232.259 1582.04 -232.245C1582.03 -232.223 1582.02 -232.202 1582.01 -232.182C1583.86 -223.718 2076.16 573.938 2070.96 572.423C2048.37 567.851 1553.72 1599.57 1526.5 1591.96C1505.07 1587.38 854.717 1494.44 829.631 1479.5C809.959 1467.78 792.769 1457 762.546 1438.29C743.096 1426.25 711.574 1426.59 659.273 1427.15L657.329 1427.17C563.093 1428.18 494.451 1426.17 483.256 1418.46C478.052 1414.88 474.498 1410.93 470.54 1406.24C453.764 1386.38 436.886 1370.18 420.23 1348.26C402.83 1325.36 383.811 1311.05 363.536 1305.1C339.196 1297.97 317.435 1290.7 297.041 1286.29C275.633 1281.67 250.453 1274.79 231.707 1263.4C213.179 1252.14 187.319 1237.92 163.459 1199.27C149.615 1176.84 144.681 1150.43 148.522 1130.62C153.154 1106.73 182.837 1084.09 157.144 975.358C147.325 933.805 139.22 892.191 125.9 858.538C112.629 825.008 106.967 802.962 93.4928 785.347C73.2821 758.926 63.171 741.857 50.1402 725.884C33.937 706.022 22.8224 687.948 21.2721 617.163C20.1271 564.885 23.7273 470.11 19.5377 420.851C14.2986 359.252 -7.63505 334.853 2.76131 311.963Z" fill="url(#paint0_linear_83_58)"/>
<defs>
<linearGradient id="paint0_linear_83_58" x1="1035.5" y1="1592" x2="1035.5" y2="-409" gradientUnits="userSpaceOnUse">
<stop stop-color="#E1BD7F"/>
<stop offset="1" stop-color="#55A053"/>
</linearGradient>
</defs>
</svg>
