<svg width="1368" height="1380" viewBox="0 0 1368 1380" fill="none" xmlns="http://www.w3.org/2000/svg">
<path d="M2.61214 419.903C522.733 -751.965 1487.74 -89.915 1496.51 -106.838C1496.5 -106.892 1496.51 -106.913 1496.54 -106.899C1496.53 -106.878 1496.52 -106.857 1496.51 -106.838C1498.25 -98.6684 1963.96 673.499 1959.04 672.032C1937.67 667.609 1469.75 1666.34 1444 1658.96C1423.73 1654.53 808.529 1564.55 784.797 1550.09C766.187 1538.75 749.925 1528.32 721.336 1510.21C702.937 1498.55 673.119 1498.88 623.646 1499.42L621.805 1499.44C532.662 1500.42 467.729 1498.47 457.139 1491.01C452.216 1487.54 448.854 1483.72 445.11 1479.18C429.241 1459.96 413.275 1444.27 397.519 1423.05C381.06 1400.89 363.069 1387.04 343.889 1381.28C320.865 1374.37 300.28 1367.33 280.987 1363.07C260.736 1358.6 236.917 1351.93 219.184 1340.91C201.658 1330.01 177.195 1316.24 154.625 1278.83C141.529 1257.12 136.861 1231.55 140.495 1212.38C144.877 1189.25 172.956 1167.34 148.651 1062.08C139.363 1021.86 131.696 981.573 119.096 948.996C106.541 916.539 101.187 895.197 88.4403 878.146C69.3217 852.57 59.7562 836.047 47.4295 820.585C32.1019 801.359 21.5885 783.862 20.1219 715.342C19.0388 664.736 22.4445 572.993 18.4813 525.309C13.5253 465.68 -7.22239 442.061 2.61214 419.903Z" fill="url(#paint0_linear_83_54)"/>
<defs>
<linearGradient id="paint0_linear_83_54" x1="979.539" y1="-278" x2="979.539" y2="1659" gradientUnits="userSpaceOnUse">
<stop stop-color="#5F192A"/>
<stop offset="1" stop-color="#A77A38"/>
</linearGradient>
</defs>
</svg>

