<svg width="1250" height="1380" viewBox="0 0 1250 1380" fill="none" xmlns="http://www.w3.org/2000/svg">
<path d="M2.61214 365.271C522.733 -822.327 1487.74 -151.39 1496.51 -168.54C1496.5 -168.595 1496.51 -168.615 1496.54 -168.602C1496.53 -168.58 1496.52 -168.56 1496.51 -168.54C1498.25 -160.261 1963.96 622.272 1959.04 620.785C1937.67 616.3 1469.75 1628.44 1444 1620.96C1423.73 1616.47 808.531 1525.29 784.797 1510.63C766.187 1499.14 749.925 1488.56 721.336 1470.21C702.936 1458.4 673.118 1458.73 623.644 1459.28L621.805 1459.3C532.662 1460.29 467.729 1458.32 457.139 1450.76C452.216 1447.24 448.854 1443.37 445.11 1438.77C429.241 1419.29 413.275 1403.39 397.519 1381.89C381.06 1359.43 363.069 1345.39 343.889 1339.55C320.865 1332.55 300.28 1325.42 280.987 1321.1C260.736 1316.57 236.917 1309.81 219.184 1298.64C201.658 1287.59 177.195 1273.64 154.625 1235.73C141.529 1213.73 136.861 1187.82 140.495 1168.38C144.877 1144.95 172.956 1122.74 148.651 1016.07C139.363 975.304 131.696 934.48 119.096 901.467C106.541 868.574 101.186 846.945 88.4403 829.665C69.3216 803.745 59.7563 787.001 47.4295 771.331C32.102 751.846 21.5885 734.115 20.1219 664.676C19.0388 613.391 22.4445 520.416 18.4813 472.092C13.5253 411.663 -7.22239 387.727 2.61214 365.271Z" fill="url(#paint0_linear_83_56)"/>
<defs>
<linearGradient id="paint0_linear_83_56" x1="1249.54" y1="1527.04" x2="1249.54" y2="-432.04" gradientUnits="userSpaceOnUse">
<stop stop-color="#6E282A"/>
<stop offset="1" stop-color="#539043"/>
</linearGradient>
</defs>
</svg>
